# xmcd
#
# Track frame offsets: 
#        150
#        23659
#        47138
#        62424
#        79599
#        105212
#        118134
#        134081
#        149381
#        173854
#        185588
#
# Disc length: 2628 seconds
#
# Revision: 0
# Processed by: cddbd v1.5.2PL0 Copyright (c) Steve Scherf et al.
# Submitted via: ExactAudioCopy v1.0b3
#
DISCID=930a420b
DTITLE=Riff Action Family - RockKill
DYEAR=2011
DGENRE=Rock Kill
TTITLE0=My Way
TTITLE1=Stoned
TTITLE2=God of War
TTITLE3=Not OK
TTITLE4=Another Truth
TTITLE5=Sky
TTITLE6=Killing Rock
TTITLE7=Deaden Your Nerve
TTITLE8=Red Sad
TTITLE9=Sin (lost ver.)
TTITLE10=And End
EXTD=
EXTT0=
EXTT1=
EXTT2=
EXTT3=
EXTT4=
EXTT5=
EXTT6=
EXTT7=
EXTT8=
EXTT9=
EXTT10=
PLAYORDER=
